<svg width="393" height="200" viewBox="0 0 393 200" fill="none" xmlns="http://www.w3.org/2000/svg">
<g clip-path="url(#clip0_44_2)">
<rect width="393" height="200" fill="white"/>
<path d="M150.262 66L151.062 44.24H154.038L160.726 59.568L167.446 44.24H170.422L171.222 66H168.662L168.022 48.976L162.07 62.608H159.414L153.43 48.976L152.822 66H150.262ZM181.508 66.448C179.567 66.448 178.031 65.7227 176.9 64.272C175.791 62.8 175.236 60.8053 175.236 58.288C175.236 56.5813 175.567 55.0773 176.228 53.776C176.911 52.4533 177.849 51.4187 179.044 50.672C180.239 49.9253 181.593 49.552 183.108 49.552C184.089 49.552 185.103 49.7227 186.148 50.064C187.215 50.4053 188.153 50.8533 188.964 51.408V62.8L189.284 66L187.172 66.16L186.596 63.28C186.041 64.2827 185.327 65.0613 184.452 65.616C183.577 66.1707 182.596 66.448 181.508 66.448ZM181.988 64.272C183.353 64.272 184.452 63.6107 185.284 62.288C186.116 60.944 186.532 59.1733 186.532 56.976V52.528C185.465 51.9947 184.324 51.728 183.108 51.728C182.063 51.728 181.124 52.0053 180.292 52.56C179.481 53.1147 178.841 53.8933 178.372 54.896C177.903 55.8773 177.668 57.008 177.668 58.288C177.668 60.1227 178.052 61.584 178.82 62.672C179.609 63.7387 180.665 64.272 181.988 64.272ZM194.578 66V53.2L194.258 50L196.37 49.84L197.01 53.712C197.629 52.432 198.418 51.44 199.378 50.736C200.338 50.0107 201.426 49.648 202.642 49.648L202.802 52.08C200.946 52.2293 199.517 53.04 198.514 54.512C197.512 55.984 197.01 58.064 197.01 60.752V66H194.578ZM216.004 73.2V63.504C214.831 65.488 213.103 66.48 210.82 66.48C208.943 66.48 207.45 65.7547 206.34 64.304C205.252 62.832 204.708 60.8373 204.708 58.32C204.708 56.6133 205.039 55.1093 205.7 53.808C206.383 52.4853 207.322 51.4507 208.516 50.704C209.711 49.9573 211.066 49.584 212.58 49.584C213.519 49.584 214.522 49.7547 215.588 50.096C216.676 50.4373 217.626 50.896 218.436 51.472V73.2H216.004ZM210.82 64.304C211.866 64.304 212.772 63.9947 213.54 63.376C214.308 62.736 214.906 61.8507 215.332 60.72C215.78 59.5893 216.004 58.2667 216.004 56.752V52.528C215.023 52.016 213.882 51.76 212.58 51.76C211.535 51.76 210.596 52.0373 209.764 52.592C208.954 53.1467 208.314 53.9253 207.844 54.928C207.375 55.9093 207.14 57.04 207.14 58.32C207.14 60.1547 207.471 61.616 208.132 62.704C208.794 63.7707 209.69 64.304 210.82 64.304ZM228.975 66.448C225.476 66.448 223.727 64.208 223.727 59.728V50H226.159V59.728C226.159 62.7573 227.236 64.272 229.391 64.272C230.33 64.272 231.172 63.9413 231.919 63.28C232.687 62.5973 233.284 61.6907 233.711 60.56C234.159 59.408 234.383 58.128 234.383 56.72V50H236.815V62.8L237.135 66L235.023 66.16L234.383 62.832C233.764 63.9413 232.986 64.8267 232.047 65.488C231.13 66.128 230.106 66.448 228.975 66.448ZM247.61 66.448C245.583 66.448 243.973 65.744 242.778 64.336C241.583 62.9067 240.986 60.9867 240.986 58.576C240.986 56.8053 241.317 55.248 241.978 53.904C242.661 52.5387 243.599 51.472 244.794 50.704C245.989 49.936 247.365 49.552 248.922 49.552C249.882 49.552 250.735 49.7547 251.482 50.16C252.229 50.5653 252.815 51.1093 253.242 51.792C253.69 52.4747 253.914 53.2533 253.914 54.128C253.914 55.216 253.562 56.1867 252.858 57.04C252.175 57.872 251.215 58.5333 249.978 59.024C248.741 59.4933 247.322 59.728 245.722 59.728C244.975 59.728 244.229 59.696 243.482 59.632C243.653 61.0613 244.101 62.192 244.826 63.024C245.573 63.856 246.533 64.272 247.706 64.272C248.559 64.272 249.402 64.1227 250.234 63.824C251.066 63.504 251.77 63.0773 252.346 62.544L253.498 64.112C251.877 65.6693 249.914 66.448 247.61 66.448ZM245.786 57.616C247.45 57.616 248.815 57.296 249.882 56.656C250.949 56.016 251.482 55.2053 251.482 54.224C251.482 53.4987 251.226 52.9013 250.714 52.432C250.223 51.9627 249.594 51.728 248.826 51.728C247.354 51.728 246.127 52.2613 245.146 53.328C244.186 54.3733 243.621 55.7493 243.45 57.456C243.877 57.52 244.282 57.5627 244.666 57.584C245.05 57.6053 245.423 57.616 245.786 57.616ZM261.958 66.448C260.913 66.448 259.899 66.256 258.918 65.872C257.937 65.488 257.073 64.9653 256.326 64.304L257.638 62.544C258.171 63.056 258.833 63.472 259.622 63.792C260.411 64.0907 261.19 64.24 261.958 64.24C262.961 64.24 263.761 64.0053 264.358 63.536C264.977 63.0667 265.286 62.448 265.286 61.68C265.286 61.0187 265.03 60.4747 264.518 60.048C264.006 59.6213 263.131 59.2373 261.894 58.896C260.678 58.5333 259.707 58.1493 258.982 57.744C258.278 57.3387 257.777 56.8587 257.478 56.304C257.179 55.728 257.03 55.0453 257.03 54.256C257.03 52.8693 257.51 51.7387 258.47 50.864C259.451 49.9893 260.721 49.552 262.278 49.552C262.769 49.552 263.302 49.6053 263.878 49.712C264.475 49.7973 265.041 49.9253 265.574 50.096C266.129 50.2453 266.577 50.4267 266.918 50.64L266.022 52.592C265.595 52.3573 265.019 52.1653 264.294 52.016C263.569 51.8453 262.897 51.76 262.278 51.76C261.467 51.76 260.795 51.9733 260.262 52.4C259.729 52.8267 259.462 53.3707 259.462 54.032C259.462 54.6293 259.686 55.1093 260.134 55.472C260.603 55.8347 261.425 56.1867 262.598 56.528C264.497 57.0827 265.819 57.7333 266.566 58.48C267.334 59.2267 267.718 60.2613 267.718 61.584C267.718 63.056 267.195 64.24 266.15 65.136C265.105 66.0107 263.707 66.448 261.958 66.448ZM270.427 58.96V56.656H280.283V58.96H270.427ZM292.642 66.512C289.762 66.512 287.511 65.5093 285.89 63.504C284.29 61.4987 283.49 58.704 283.49 55.12C283.49 51.536 284.29 48.7413 285.89 46.736C287.511 44.7307 289.762 43.728 292.642 43.728C294.626 43.728 296.45 44.2293 298.114 45.232L297.218 47.376C295.831 46.5013 294.306 46.064 292.642 46.064C290.572 46.064 288.951 46.864 287.778 48.464C286.626 50.0427 286.05 52.2613 286.05 55.12C286.05 57.9573 286.626 60.176 287.778 61.776C288.951 63.376 290.572 64.176 292.642 64.176C293.495 64.176 294.348 64.0587 295.202 63.824C296.055 63.5893 296.834 63.2587 297.538 62.832L298.658 64.816C296.823 65.9467 294.818 66.512 292.642 66.512ZM307.623 66.448C305.426 66.448 303.698 65.7013 302.439 64.208C301.202 62.7147 300.583 60.6453 300.583 58C300.583 55.3333 301.202 53.264 302.439 51.792C303.698 50.2987 305.426 49.552 307.623 49.552C309.842 49.552 311.57 50.3093 312.807 51.824C314.066 53.3173 314.695 55.376 314.695 58C314.695 60.624 314.066 62.6933 312.807 64.208C311.57 65.7013 309.842 66.448 307.623 66.448ZM307.623 64.272C309.074 64.272 310.205 63.7173 311.015 62.608C311.847 61.4987 312.263 59.9627 312.263 58C312.263 56.0373 311.847 54.5013 311.015 53.392C310.205 52.2827 309.074 51.728 307.623 51.728C306.173 51.728 305.042 52.2827 304.231 53.392C303.421 54.5013 303.015 56.0373 303.015 58C303.015 59.9627 303.421 61.4987 304.231 62.608C305.042 63.7173 306.173 64.272 307.623 64.272ZM324.36 66.448C322.333 66.448 320.723 65.744 319.528 64.336C318.333 62.9067 317.736 60.9867 317.736 58.576C317.736 56.8053 318.067 55.248 318.728 53.904C319.411 52.5387 320.349 51.472 321.544 50.704C322.739 49.936 324.115 49.552 325.672 49.552C326.632 49.552 327.485 49.7547 328.232 50.16C328.979 50.5653 329.565 51.1093 329.992 51.792C330.44 52.4747 330.664 53.2533 330.664 54.128C330.664 55.216 330.312 56.1867 329.608 57.04C328.925 57.872 327.965 58.5333 326.728 59.024C325.491 59.4933 324.072 59.728 322.472 59.728C321.725 59.728 320.979 59.696 320.232 59.632C320.403 61.0613 320.851 62.192 321.576 63.024C322.323 63.856 323.283 64.272 324.456 64.272C325.309 64.272 326.152 64.1227 326.984 63.824C327.816 63.504 328.52 63.0773 329.096 62.544L330.248 64.112C328.627 65.6693 326.664 66.448 324.36 66.448ZM322.536 57.616C324.2 57.616 325.565 57.296 326.632 56.656C327.699 56.016 328.232 55.2053 328.232 54.224C328.232 53.4987 327.976 52.9013 327.464 52.432C326.973 51.9627 326.344 51.728 325.576 51.728C324.104 51.728 322.877 52.2613 321.896 53.328C320.936 54.3733 320.371 55.7493 320.2 57.456C320.627 57.52 321.032 57.5627 321.416 57.584C321.8 57.6053 322.173 57.616 322.536 57.616ZM337.524 66.448C336.393 66.448 335.551 66.128 334.996 65.488C334.463 64.848 334.196 63.8453 334.196 62.48V43.6H336.628V62.48C336.628 63.6533 337.108 64.24 338.068 64.24C338.644 64.24 339.252 64.0267 339.892 63.6L340.852 65.328C339.679 66.0747 338.569 66.448 337.524 66.448ZM343.082 66V43.6H345.514V53.168C346.133 52.0587 346.911 51.184 347.85 50.544C348.789 49.8827 349.813 49.552 350.922 49.552C354.421 49.552 356.17 51.792 356.17 56.272V66H353.738V56.272C353.738 53.2427 352.661 51.728 350.506 51.728C349.589 51.728 348.746 52.048 347.978 52.688C347.231 53.328 346.634 54.192 346.186 55.28C345.738 56.368 345.514 57.5947 345.514 58.96V66H343.082ZM367.217 66.448C365.02 66.448 363.292 65.7013 362.033 64.208C360.796 62.7147 360.177 60.6453 360.177 58C360.177 55.3333 360.796 53.264 362.033 51.792C363.292 50.2987 365.02 49.552 367.217 49.552C369.436 49.552 371.164 50.3093 372.401 51.824C373.66 53.3173 374.289 55.376 374.289 58C374.289 60.624 373.66 62.6933 372.401 64.208C371.164 65.7013 369.436 66.448 367.217 66.448ZM367.217 64.272C368.668 64.272 369.798 63.7173 370.609 62.608C371.441 61.4987 371.857 59.9627 371.857 58C371.857 56.0373 371.441 54.5013 370.609 53.392C369.798 52.2827 368.668 51.728 367.217 51.728C365.766 51.728 364.636 52.2827 363.825 53.392C363.014 54.5013 362.609 56.0373 362.609 58C362.609 59.9627 363.014 61.4987 363.825 62.608C364.636 63.7173 365.766 64.272 367.217 64.272ZM177.738 103V81.24H185.738C186.72 81.24 187.605 81.4747 188.394 81.944C189.184 82.4133 189.813 83.0427 190.282 83.832C190.752 84.6213 190.986 85.5067 190.986 86.488C190.986 87.512 190.72 88.44 190.186 89.272C189.674 90.0827 189.002 90.7013 188.17 91.128C189.301 91.5547 190.208 92.248 190.89 93.208C191.594 94.1467 191.946 95.2453 191.946 96.504C191.946 97.6987 191.658 98.7973 191.082 99.8C190.506 100.781 189.728 101.56 188.746 102.136C187.765 102.712 186.666 103 185.45 103H177.738ZM180.298 90.008H185.258C186.197 90.008 186.976 89.6987 187.594 89.08C188.234 88.44 188.554 87.672 188.554 86.776C188.554 85.88 188.234 85.1227 187.594 84.504C186.976 83.864 186.197 83.544 185.258 83.544H180.298V90.008ZM180.298 100.696H185.386C186.133 100.696 186.816 100.504 187.434 100.12C188.074 99.736 188.576 99.2347 188.938 98.616C189.322 97.976 189.514 97.272 189.514 96.504C189.514 95.736 189.322 95.032 188.938 94.392C188.576 93.752 188.085 93.2507 187.466 92.888C186.848 92.504 186.154 92.312 185.386 92.312H180.298V100.696ZM195.801 103V87H198.233V103H195.801ZM197.017 84.248C196.441 84.248 195.982 84.088 195.641 83.768C195.321 83.4267 195.161 82.968 195.161 82.392C195.161 81.8373 195.321 81.3893 195.641 81.048C195.982 80.7067 196.441 80.536 197.017 80.536C197.572 80.536 198.02 80.7067 198.361 81.048C198.702 81.3893 198.873 81.8373 198.873 82.392C198.873 82.9253 198.702 83.3733 198.361 83.736C198.02 84.0773 197.572 84.248 197.017 84.248ZM209.748 103.448C207.551 103.448 205.823 102.701 204.564 101.208C203.327 99.7147 202.708 97.6453 202.708 95C202.708 92.3333 203.327 90.264 204.564 88.792C205.823 87.2987 207.551 86.552 209.748 86.552C211.967 86.552 213.695 87.3093 214.932 88.824C216.191 90.3173 216.82 92.376 216.82 95C216.82 97.624 216.191 99.6933 214.932 101.208C213.695 102.701 211.967 103.448 209.748 103.448ZM209.748 101.272C211.199 101.272 212.33 100.717 213.14 99.608C213.972 98.4987 214.388 96.9627 214.388 95C214.388 93.0373 213.972 91.5013 213.14 90.392C212.33 89.2827 211.199 88.728 209.748 88.728C208.298 88.728 207.167 89.2827 206.356 90.392C205.546 91.5013 205.14 93.0373 205.14 95C205.14 96.9627 205.546 98.4987 206.356 99.608C207.167 100.717 208.298 101.272 209.748 101.272ZM221.301 103V87H223.733V103H221.301ZM222.517 84.248C221.941 84.248 221.482 84.088 221.141 83.768C220.821 83.4267 220.661 82.968 220.661 82.392C220.661 81.8373 220.821 81.3893 221.141 81.048C221.482 80.7067 221.941 80.536 222.517 80.536C223.072 80.536 223.52 80.7067 223.861 81.048C224.202 81.3893 224.373 81.8373 224.373 82.392C224.373 82.9253 224.202 83.3733 223.861 83.736C223.52 84.0773 223.072 84.248 222.517 84.248ZM229.328 103V90.2L229.008 87L231.12 86.84L231.76 90.168C232.379 89.0587 233.158 88.184 234.096 87.544C235.035 86.8827 236.059 86.552 237.168 86.552C240.667 86.552 242.416 88.792 242.416 93.272V103H239.984V93.272C239.984 90.2427 238.907 88.728 236.752 88.728C235.835 88.728 234.992 89.048 234.224 89.688C233.478 90.328 232.88 91.192 232.432 92.28C231.984 93.368 231.76 94.5947 231.76 95.96V103H229.328ZM248.187 108.12V89.08H246.107V87H248.187V85.368C248.187 83.6827 248.539 82.392 249.243 81.496C249.968 80.6 250.992 80.152 252.315 80.152C253.531 80.152 254.8 80.5787 256.123 81.432L255.163 83.16C254.032 82.6693 253.168 82.424 252.571 82.424C251.27 82.424 250.619 83.3627 250.619 85.24V87H254.299V89.08H250.619V108.12H248.187ZM263.155 103.448C260.957 103.448 259.229 102.701 257.971 101.208C256.733 99.7147 256.115 97.6453 256.115 95C256.115 92.3333 256.733 90.264 257.971 88.792C259.229 87.2987 260.957 86.552 263.155 86.552C265.373 86.552 267.101 87.3093 268.339 88.824C269.597 90.3173 270.227 92.376 270.227 95C270.227 97.624 269.597 99.6933 268.339 101.208C267.101 102.701 265.373 103.448 263.155 103.448ZM263.155 101.272C264.605 101.272 265.736 100.717 266.547 99.608C267.379 98.4987 267.795 96.9627 267.795 95C267.795 93.0373 267.379 91.5013 266.547 90.392C265.736 89.2827 264.605 88.728 263.155 88.728C261.704 88.728 260.573 89.2827 259.763 90.392C258.952 91.5013 258.547 93.0373 258.547 95C258.547 96.9627 258.952 98.4987 259.763 99.608C260.573 100.717 261.704 101.272 263.155 101.272ZM274.547 103V90.2L274.227 87L276.339 86.84L276.979 90.712C277.598 89.432 278.387 88.44 279.347 87.736C280.307 87.0107 281.395 86.648 282.611 86.648L282.771 89.08C280.915 89.2293 279.486 90.04 278.483 91.512C277.48 92.984 276.979 95.064 276.979 97.752V103H274.547ZM285.797 103V90.2L285.477 87L287.589 86.84L288.197 90.136C288.816 89.0267 289.562 88.152 290.437 87.512C291.312 86.872 292.272 86.552 293.317 86.552C295.898 86.552 297.498 87.896 298.117 90.584C298.714 89.3467 299.482 88.3653 300.421 87.64C301.36 86.9147 302.384 86.552 303.493 86.552C305.157 86.552 306.416 87.1173 307.269 88.248C308.144 89.3787 308.581 91.0533 308.581 93.272V103H306.149V93.272C306.149 90.2427 305.136 88.728 303.109 88.728C302.234 88.728 301.434 89.0587 300.709 89.72C300.005 90.3813 299.44 91.288 299.013 92.44C298.608 93.5707 298.405 94.8507 298.405 96.28V103H295.973V93.272C295.973 90.2427 294.96 88.728 292.933 88.728C292.08 88.728 291.29 89.048 290.565 89.688C289.861 90.3067 289.296 91.16 288.869 92.248C288.442 93.336 288.229 94.5733 288.229 95.96V103H285.797ZM318.695 103.448C316.754 103.448 315.218 102.723 314.087 101.272C312.978 99.8 312.423 97.8053 312.423 95.288C312.423 93.5813 312.754 92.0773 313.415 90.776C314.098 89.4533 315.037 88.4187 316.231 87.672C317.426 86.9253 318.781 86.552 320.295 86.552C321.277 86.552 322.29 86.7227 323.335 87.064C324.402 87.4053 325.341 87.8533 326.151 88.408V99.8L326.471 103L324.359 103.16L323.783 100.28C323.229 101.283 322.514 102.061 321.639 102.616C320.765 103.171 319.783 103.448 318.695 103.448ZM319.175 101.272C320.541 101.272 321.639 100.611 322.471 99.288C323.303 97.944 323.719 96.1733 323.719 93.976V89.528C322.653 88.9947 321.511 88.728 320.295 88.728C319.25 88.728 318.311 89.0053 317.479 89.56C316.669 90.1147 316.029 90.8933 315.559 91.896C315.09 92.8773 314.855 94.008 314.855 95.288C314.855 97.1227 315.239 98.584 316.007 99.672C316.797 100.739 317.853 101.272 319.175 101.272ZM335.734 103.448C334.582 103.448 333.739 103.139 333.206 102.52C332.673 101.88 332.406 100.877 332.406 99.512V89.08H329.974V87H332.406L333.174 82.2H334.838V87H338.582V89.08H334.838V99.512C334.838 100.685 335.318 101.272 336.278 101.272C337.003 101.272 337.793 100.963 338.646 100.344L339.542 101.976C338.305 102.957 337.035 103.448 335.734 103.448ZM342.52 103V87H344.952V103H342.52ZM343.736 84.248C343.16 84.248 342.701 84.088 342.36 83.768C342.04 83.4267 341.88 82.968 341.88 82.392C341.88 81.8373 342.04 81.3893 342.36 81.048C342.701 80.7067 343.16 80.536 343.736 80.536C344.29 80.536 344.738 80.7067 345.08 81.048C345.421 81.3893 345.592 81.8373 345.592 82.392C345.592 82.9253 345.421 83.3733 345.08 83.736C344.738 84.0773 344.29 84.248 343.736 84.248ZM356.211 103.448C354.824 103.448 353.608 103.117 352.563 102.456C351.518 101.795 350.707 100.877 350.131 99.704C349.555 98.5093 349.267 97.112 349.267 95.512C349.267 93.6773 349.576 92.0987 350.195 90.776C350.814 89.432 351.688 88.3973 352.819 87.672C353.95 86.9253 355.283 86.552 356.819 86.552C358.27 86.552 359.635 86.936 360.915 87.704L360.307 89.656C359.176 89.0373 358.035 88.728 356.883 88.728C355.326 88.728 354.067 89.3253 353.107 90.52C352.168 91.6933 351.699 93.2507 351.699 95.192C351.699 97.0907 352.104 98.584 352.915 99.672C353.747 100.739 354.878 101.272 356.307 101.272C357.118 101.272 357.907 101.133 358.675 100.856C359.464 100.579 360.147 100.205 360.723 99.736L361.683 101.464C360.104 102.787 358.28 103.448 356.211 103.448ZM369.02 103.448C367.975 103.448 366.962 103.256 365.98 102.872C364.999 102.488 364.135 101.965 363.388 101.304L364.7 99.544C365.234 100.056 365.895 100.472 366.684 100.792C367.474 101.091 368.252 101.24 369.02 101.24C370.023 101.24 370.823 101.005 371.42 100.536C372.039 100.067 372.348 99.448 372.348 98.68C372.348 98.0187 372.092 97.4747 371.58 97.048C371.068 96.6213 370.194 96.2373 368.956 95.896C367.74 95.5333 366.77 95.1493 366.044 94.744C365.34 94.3387 364.839 93.8587 364.54 93.304C364.242 92.728 364.092 92.0453 364.092 91.256C364.092 89.8693 364.572 88.7387 365.532 87.864C366.514 86.9893 367.783 86.552 369.34 86.552C369.831 86.552 370.364 86.6053 370.94 86.712C371.538 86.7973 372.103 86.9253 372.636 87.096C373.191 87.2453 373.639 87.4267 373.98 87.64L373.084 89.592C372.658 89.3573 372.082 89.1653 371.356 89.016C370.631 88.8453 369.959 88.76 369.34 88.76C368.53 88.76 367.858 88.9733 367.324 89.4C366.791 89.8267 366.524 90.3707 366.524 91.032C366.524 91.6293 366.748 92.1093 367.196 92.472C367.666 92.8347 368.487 93.1867 369.66 93.528C371.559 94.0827 372.882 94.7333 373.628 95.48C374.396 96.2267 374.78 97.2613 374.78 98.584C374.78 100.056 374.258 101.24 373.212 102.136C372.167 103.011 370.77 103.448 369.02 103.448ZM316.872 149V121.8H320.072V146.12H331.152V149H316.872ZM340.803 149.56C338.376 149.56 336.456 148.653 335.043 146.84C333.656 145 332.963 142.507 332.963 139.36C332.963 137.227 333.376 135.347 334.203 133.72C335.056 132.067 336.23 130.773 337.723 129.84C339.216 128.907 340.91 128.44 342.803 128.44C344.03 128.44 345.296 128.653 346.603 129.08C347.936 129.507 349.11 130.067 350.123 130.76V145L350.523 149L347.883 149.2L347.163 145.6C346.47 146.853 345.576 147.827 344.483 148.52C343.39 149.213 342.163 149.56 340.803 149.56ZM341.403 146.84C343.11 146.84 344.483 146.013 345.523 144.36C346.563 142.68 347.083 140.467 347.083 137.72V132.16C345.75 131.493 344.323 131.16 342.803 131.16C341.496 131.16 340.323 131.507 339.283 132.2C338.27 132.893 337.47 133.867 336.883 135.12C336.296 136.347 336.003 137.76 336.003 139.36C336.003 141.653 336.483 143.48 337.443 144.84C338.43 146.173 339.75 146.84 341.403 146.84ZM364.061 149.56C361.715 149.56 359.901 148.84 358.621 147.4C357.368 145.933 356.741 143.853 356.741 141.16V121H359.781V132.28C361.221 129.72 363.381 128.44 366.261 128.44C368.635 128.44 370.501 129.36 371.861 131.2C373.221 133.013 373.901 135.493 373.901 138.64C373.901 140.747 373.475 142.627 372.621 144.28C371.795 145.933 370.635 147.227 369.141 148.16C367.675 149.093 365.981 149.56 364.061 149.56ZM364.061 146.84C365.395 146.84 366.568 146.493 367.581 145.8C368.595 145.08 369.395 144.107 369.981 142.88C370.568 141.653 370.861 140.24 370.861 138.64C370.861 136.293 370.421 134.467 369.541 133.16C368.688 131.827 367.475 131.16 365.901 131.16C364.008 131.16 362.528 131.947 361.461 133.52C360.395 135.093 359.835 137.307 359.781 140.16V141.16C359.781 142.947 360.155 144.347 360.901 145.36C361.648 146.347 362.701 146.84 364.061 146.84Z" fill="black"/>
<path d="M61.7333 30C59.8667 30.9333 58.1 33.0333 57.7333 34.7667C57.5667 35.6333 57.3 36.1 57 36.0333C53.6 35.2667 52.2 35.3333 50.0667 36.4333C45.6667 38.7 44.6667 49.1 48.0333 57.5667C50.9333 64.8333 55.5333 70.4 63.8667 76.7333C66.4667 78.6667 69.1333 80.9 69.8333 81.6667C72.6333 84.7667 74 89.8 72.8667 92.8C71.6667 95.8667 69.2 97.2667 58.2 101.133C48.7333 104.467 43.5666 107.4 38.7333 112.1C34.6 116.1 31.4333 121.3 29.8 126.8C29.4667 127.9 29.1666 128.867 29.1 128.933C29.0666 129 28.4666 128.567 27.7666 127.967C24.6333 125.2 20.7 124.7 16.9 126.567C12.2666 128.833 10.2 133.867 11.8666 138.767C13.5333 143.6 19.9333 146.9 25.8666 145.967C27.1 145.767 28.1 145.667 28.1666 145.7C28.2 145.767 28.5666 146.867 29 148.2C30 151.467 31.7667 154.367 34.1667 156.8C37.5 160.133 41.6667 161.867 48.1667 162.6C49.9333 162.8 64.4 162.967 83.1667 163C111.9 163.033 115.333 163 116.867 162.5C118.667 161.933 120.067 160.8 120.933 159.133C121.633 157.8 121.6 154.5 120.867 152.833C120.1 151 118.167 148.767 116.633 147.867C115.933 147.467 115.333 146.9 115.333 146.6C115.333 146.3 115.933 144.3 116.7 142.133C117.433 139.967 118.267 137.2 118.533 136C119.167 132.9 119.1 127.867 118.333 122.833C117.967 120.467 117.667 117.833 117.667 117V115.433L121.6 113.133C123.733 111.867 126.2 110.133 127.033 109.3C129.067 107.267 130.833 103.667 131.3 100.567C131.533 99.2333 131.833 97.5 132 96.7C132.567 94.2667 132.4 91.2667 131.667 90.0333C131.3 89.4667 130.867 88.9667 130.7 88.9667C130.533 88.9667 130 87.9667 129.5 86.7333C125.933 77.7667 117.767 69.9667 108.7 66.8C105.4 65.6333 104.733 64.9333 102 59.5667C100.667 56.9667 99.2 54.2 98.7333 53.4667C95.5333 48.3333 88.3333 40.7333 82.6667 36.5C74.8333 30.6667 65.9667 27.9 61.7333 30ZM71.0333 34.2667C75.9333 36.3 81.4 40.1333 86.1333 44.8667C91.6 50.3333 95.7 56.2 99.3333 63.7333C100.6 66.3333 101.8 68.7333 102.067 69.0667C102.3 69.4 103.833 70 105.633 70.4667C111.533 72.0667 116.8 75.6 120.867 80.7333C123.433 84 126 88.7 125.333 88.9C125.067 89 124.267 89.6333 123.533 90.3C122.4 91.3667 122.2 91.7333 122.067 93.3667C121.933 95.0333 122 95.3 122.967 96.4C123.567 97.0333 124.733 97.9333 125.6 98.3333C126.467 98.7333 127.2 99.1 127.267 99.1333C127.3 99.1667 127.067 100.133 126.7 101.267C125.533 104.967 123.367 107.133 117.433 110.5C115.233 111.7 113.667 112.833 113.433 113.333C112.833 114.467 112.9 116.3 113.667 120.133C115.5 129.433 114.533 138.9 111.2 143.833L110.033 145.533L105.1 145.733C98.3667 145.967 96.2667 146.767 97.3 148.7C98.1333 150.3 98.7667 150.433 104.733 150.333C111.633 150.233 113.4 150.633 115.567 152.8C117.267 154.5 117.5 156.033 116.267 157.467C115.6 158.233 115.133 158.367 112.333 158.633C108.8 158.967 100.6 159 95.5 158.667L92.1667 158.467L91.9667 155.8C91.8667 154.333 91.5667 152.6 91.2667 151.967C90.5333 150.333 88.8333 148.833 86.6 147.8C85.5333 147.3 84.6667 146.733 84.6667 146.533C84.6667 146.3 85.0667 144.7 85.5333 142.967C87.7 135.033 86.6 128.9 82.1667 123.733C80.6667 121.967 76.2 118.967 73.1333 117.667C66.4333 114.833 62 114.867 62 117.8C62 118.933 62.9 119.433 67 120.433C77.9667 123.133 83.4 129.833 82.0667 138.967C81.6 142.2 81.1 143.267 78.8 145.7C77.4667 147.1 77 147.833 77 148.567C77 149.733 77.7333 150.133 81.1333 150.8C84.1333 151.367 84.9333 151.7 86.2667 152.8C87.6333 153.933 88.1333 155.667 87.5 157.167C87.1 158.167 86.9 158.267 85.1 158.533C82.6333 158.867 56.3333 158.867 52.9333 158.5C50.4667 158.267 50.3667 158.2 50.0333 157.233C49.3333 155.267 49.5667 154.367 51.1667 152.833C52.7333 151.3 52.8667 150.9 52.3333 149.5C52.0667 148.733 51.8333 148.633 50.5333 148.633C49.4333 148.633 48.8 148.867 48 149.5C46.4667 150.833 45.9 152.167 45.7 155.133L45.5 157.8L44.3 157.767C43.4 157.733 42.4 157.267 40.5333 155.967C36.1 152.9 33.5666 149.4 32.5 144.9C31.2333 139.567 32.4667 130.7 35.3666 124.367C37.4666 119.7 41.6667 114.733 45.9 111.833C48.9 109.8 55.2667 106.9 61.8333 104.533C68.9333 102 71.9 100.567 74.1 98.6333C76.0333 96.9333 76.9 95.3 77.5333 92.2667C78.1667 89.2667 77.7667 86.6333 76.2 83.4333C74.6667 80.4 72 77.5 66.7333 73.2667C59.8667 67.7333 58.3 66.2667 56.2333 63.4667C50.1333 55.2333 47.8667 44.3667 51.5 40.7333C52.9333 39.3 54.5333 39.2333 56 40.5333C56.8 41.2667 57.2 42.1333 57.8333 44.5C61.2333 57.3667 69.5667 68.1 80 73.1C84.9333 75.4667 86.8333 73.9333 82.7333 70.9C81.8667 70.2667 79.7 68.6667 77.9 67.3667C71.1667 62.3667 67.5333 58 64.0333 50.6333C60.2667 42.7 59.9333 35.6667 63.2333 33.5333C64.6333 32.6333 67.8667 32.9333 71.0333 34.2667ZM24.2 130.467C24.9666 130.933 26.1333 132.033 26.8 132.9L27.9666 134.533L27.7666 137.9L27.5666 141.267L26.4333 141.667C25.8 141.867 24.2666 141.967 23.0333 141.9C16.3 141.533 12.9666 135.167 17.4 131.067C19.1666 129.4 21.9667 129.167 24.2 130.467Z" fill="black"/>
<path d="M65 40C61.4 41.5667 62.6 49.2 67.6667 56.6333C71.9 62.9 81.3 69.9 86.1 70.4C88.5 70.6667 89.4667 70.3333 90.2333 69.0667C92.7667 64.9667 87.8333 55.3667 78.7667 46.5667C75.3 43.2 72.4667 41.2 69.7 40.1667C67.5667 39.4 66.4667 39.3333 65 40Z" fill="#EA8989"/>
<path d="M107.367 84.2C104.633 86.5 106.567 90.4333 110.467 90.4333C112.9 90.4333 114.033 87.9667 112.867 85.1667C112.3 83.8 111.467 83.3333 109.7 83.3333C108.767 83.3333 108.1 83.5667 107.367 84.2Z" fill="black"/>
<path d="M125.248 94.8391C124.421 94.163 124.546 92.8643 125.486 92.3577L128.409 90.7826C129.13 90.3938 129.988 90.9905 129.874 91.8021L129.261 96.1598C129.153 96.9321 128.241 97.2884 127.638 96.7946L125.248 94.8391Z" fill="#EA8989"/>
<circle opacity="0.1" cx="107.5" cy="84.5" r="10.5" fill="#828282"/>
<path opacity="0.8" d="M117.879 82.5149L126 80" stroke="#C28742" stroke-width="2"/>
</g>
<defs>
<clipPath id="clip0_44_2">
<rect width="393" height="200" fill="white"/>
</clipPath>
</defs>
</svg>
