<svg width="200" height="200" viewBox="0 0 200 200" fill="none" xmlns="http://www.w3.org/2000/svg">
<g clip-path="url(#clip0_46_2)">
<rect width="200" height="200" fill="#222322"/>
<path d="M77.7334 30C75.8667 30.9333 74.1 33.0333 73.7333 34.7667C73.5667 35.6333 73.3 36.1 73 36.0333C69.6 35.2667 68.2 35.3333 66.0667 36.4333C61.6667 38.7 60.6667 49.1 64.0334 57.5667C66.9334 64.8333 71.5334 70.4 79.8667 76.7333C82.4667 78.6667 85.1334 80.9 85.8334 81.6667C88.6334 84.7667 90 89.8 88.8667 92.8C87.6667 95.8667 85.2 97.2667 74.2 101.133C64.7334 104.467 59.5667 107.4 54.7333 112.1C50.6 116.1 47.4333 121.3 45.8 126.8C45.4667 127.9 45.1667 128.867 45.1 128.933C45.0667 129 44.4667 128.567 43.7667 127.967C40.6333 125.2 36.7 124.7 32.9 126.567C28.2667 128.833 26.2 133.867 27.8667 138.767C29.5333 143.6 35.9333 146.9 41.8667 145.967C43.1 145.767 44.1 145.667 44.1667 145.7C44.2 145.767 44.5667 146.867 45 148.2C46 151.467 47.7667 154.367 50.1667 156.8C53.5 160.133 57.6667 161.867 64.1667 162.6C65.9334 162.8 80.4 162.967 99.1667 163C127.9 163.033 131.333 163 132.867 162.5C134.667 161.933 136.067 160.8 136.933 159.133C137.633 157.8 137.6 154.5 136.867 152.833C136.1 151 134.167 148.767 132.633 147.867C131.933 147.467 131.333 146.9 131.333 146.6C131.333 146.3 131.933 144.3 132.7 142.133C133.433 139.967 134.267 137.2 134.533 136C135.167 132.9 135.1 127.867 134.333 122.833C133.967 120.467 133.667 117.833 133.667 117V115.433L137.6 113.133C139.733 111.867 142.2 110.133 143.033 109.3C145.067 107.267 146.833 103.667 147.3 100.567C147.533 99.2333 147.833 97.5 148 96.7C148.567 94.2667 148.4 91.2667 147.667 90.0333C147.3 89.4667 146.867 88.9667 146.7 88.9667C146.533 88.9667 146 87.9667 145.5 86.7333C141.933 77.7667 133.767 69.9667 124.7 66.8C121.4 65.6333 120.733 64.9333 118 59.5667C116.667 56.9667 115.2 54.2 114.733 53.4667C111.533 48.3333 104.333 40.7333 98.6667 36.5C90.8334 30.6667 81.9667 27.9 77.7334 30ZM87.0334 34.2667C91.9334 36.3 97.4 40.1333 102.133 44.8667C107.6 50.3333 111.7 56.2 115.333 63.7333C116.6 66.3333 117.8 68.7333 118.067 69.0667C118.3 69.4 119.833 70 121.633 70.4667C127.533 72.0667 132.8 75.6 136.867 80.7333C139.433 84 142 88.7 141.333 88.9C141.067 89 140.267 89.6333 139.533 90.3C138.4 91.3667 138.2 91.7333 138.067 93.3667C137.933 95.0333 138 95.3 138.967 96.4C139.567 97.0333 140.733 97.9333 141.6 98.3333C142.467 98.7333 143.2 99.1 143.267 99.1333C143.3 99.1667 143.067 100.133 142.7 101.267C141.533 104.967 139.367 107.133 133.433 110.5C131.233 111.7 129.667 112.833 129.433 113.333C128.833 114.467 128.9 116.3 129.667 120.133C131.5 129.433 130.533 138.9 127.2 143.833L126.033 145.533L121.1 145.733C114.367 145.967 112.267 146.767 113.3 148.7C114.133 150.3 114.767 150.433 120.733 150.333C127.633 150.233 129.4 150.633 131.567 152.8C133.267 154.5 133.5 156.033 132.267 157.467C131.6 158.233 131.133 158.367 128.333 158.633C124.8 158.967 116.6 159 111.5 158.667L108.167 158.467L107.967 155.8C107.867 154.333 107.567 152.6 107.267 151.967C106.533 150.333 104.833 148.833 102.6 147.8C101.533 147.3 100.667 146.733 100.667 146.533C100.667 146.3 101.067 144.7 101.533 142.967C103.7 135.033 102.6 128.9 98.1667 123.733C96.6667 121.967 92.2 118.967 89.1334 117.667C82.4334 114.833 78 114.867 78 117.8C78 118.933 78.9 119.433 83 120.433C93.9667 123.133 99.4 129.833 98.0667 138.967C97.6 142.2 97.1 143.267 94.8 145.7C93.4667 147.1 93 147.833 93 148.567C93 149.733 93.7334 150.133 97.1334 150.8C100.133 151.367 100.933 151.7 102.267 152.8C103.633 153.933 104.133 155.667 103.5 157.167C103.1 158.167 102.9 158.267 101.1 158.533C98.6334 158.867 72.3333 158.867 68.9333 158.5C66.4667 158.267 66.3667 158.2 66.0334 157.233C65.3334 155.267 65.5667 154.367 67.1667 152.833C68.7333 151.3 68.8667 150.9 68.3334 149.5C68.0667 148.733 67.8334 148.633 66.5334 148.633C65.4334 148.633 64.8 148.867 64 149.5C62.4667 150.833 61.9 152.167 61.7 155.133L61.5 157.8L60.3 157.767C59.4 157.733 58.4 157.267 56.5333 155.967C52.1 152.9 49.5667 149.4 48.5 144.9C47.2333 139.567 48.4667 130.7 51.3667 124.367C53.4667 119.7 57.6667 114.733 61.9 111.833C64.9 109.8 71.2667 106.9 77.8333 104.533C84.9333 102 87.9 100.567 90.1 98.6333C92.0334 96.9333 92.9 95.3 93.5334 92.2667C94.1667 89.2667 93.7667 86.6333 92.2 83.4333C90.6667 80.4 88 77.5 82.7334 73.2667C75.8667 67.7333 74.3 66.2667 72.2333 63.4667C66.1334 55.2333 63.8667 44.3667 67.5 40.7333C68.9333 39.3 70.5334 39.2333 72 40.5333C72.8 41.2667 73.2 42.1333 73.8334 44.5C77.2333 57.3667 85.5667 68.1 96 73.1C100.933 75.4667 102.833 73.9333 98.7334 70.9C97.8667 70.2667 95.7 68.6667 93.9 67.3667C87.1667 62.3667 83.5333 58 80.0334 50.6333C76.2667 42.7 75.9334 35.6667 79.2334 33.5333C80.6334 32.6333 83.8667 32.9333 87.0334 34.2667ZM40.2 130.467C40.9667 130.933 42.1333 132.033 42.8 132.9L43.9667 134.533L43.7667 137.9L43.5667 141.267L42.4333 141.667C41.8 141.867 40.2667 141.967 39.0333 141.9C32.3 141.533 28.9667 135.167 33.4 131.067C35.1667 129.4 37.9667 129.167 40.2 130.467Z" fill="white"/>
<path d="M81 40C77.4 41.5667 78.6 49.2 83.6667 56.6333C87.9 62.9 97.3 69.9 102.1 70.4C104.5 70.6667 105.467 70.3333 106.233 69.0667C108.767 64.9667 103.833 55.3667 94.7667 46.5667C91.3 43.2 88.4667 41.2 85.7 40.1667C83.5667 39.4 82.4667 39.3333 81 40Z" fill="white"/>
<path d="M123.367 84.2C120.633 86.5 122.567 90.4333 126.467 90.4333C128.9 90.4333 130.033 87.9667 128.867 85.1667C128.3 83.8 127.467 83.3334 125.7 83.3334C124.767 83.3334 124.1 83.5667 123.367 84.2Z" fill="white"/>
<path d="M141.248 94.8391C140.421 94.163 140.546 92.8643 141.486 92.3577L144.409 90.7826C145.13 90.3938 145.988 90.9905 145.874 91.8021L145.261 96.1598C145.153 96.9321 144.241 97.2884 143.638 96.7946L141.248 94.8391Z" fill="white"/>
<circle opacity="0.1" cx="123.5" cy="84.5" r="10.5" fill="#828282"/>
</g>
<defs>
<clipPath id="clip0_46_2">
<rect width="200" height="200" fill="white"/>
</clipPath>
</defs>
</svg>
