<svg width="89" height="57" viewBox="0 0 89 57" fill="none" xmlns="http://www.w3.org/2000/svg">
<g clip-path="url(#clip0_46_24)">
<rect width="89" height="57" fill="white"/>
<path d="M4.83066 29.71L5.58066 9.31H8.37066L14.6407 23.68L20.9407 9.31H23.7307L24.4807 29.71H22.0807L21.4807 13.75L15.9007 26.53H13.4107L7.80066 13.75L7.23066 29.71H4.83066ZM36.9736 30.19C34.2736 30.19 32.1636 29.25 30.6436 27.37C29.1436 25.49 28.3936 22.87 28.3936 19.51C28.3936 16.15 29.1436 13.53 30.6436 11.65C32.1636 9.77 34.2736 8.83 36.9736 8.83C38.8336 8.83 40.5436 9.3 42.1036 10.24L41.2636 12.25C39.9636 11.43 38.5336 11.02 36.9736 11.02C35.0336 11.02 33.5136 11.77 32.4136 13.27C31.3336 14.75 30.7936 16.83 30.7936 19.51C30.7936 22.17 31.3336 24.25 32.4136 25.75C33.5136 27.25 35.0336 28 36.9736 28C37.7736 28 38.5736 27.89 39.3736 27.67C40.1736 27.45 40.9036 27.14 41.5636 26.74L42.6136 28.6C40.8936 29.66 39.0136 30.19 36.9736 30.19ZM45.6189 29.71V9.31H53.1189C54.0389 9.31 54.8689 9.53 55.6089 9.97C56.3489 10.41 56.9389 11 57.3789 11.74C57.8189 12.48 58.0389 13.31 58.0389 14.23C58.0389 15.19 57.7889 16.06 57.2889 16.84C56.8089 17.6 56.1789 18.18 55.3989 18.58C56.4589 18.98 57.3089 19.63 57.9489 20.53C58.6089 21.41 58.9389 22.44 58.9389 23.62C58.9389 24.74 58.6689 25.77 58.1289 26.71C57.5889 27.63 56.8589 28.36 55.9389 28.9C55.0189 29.44 53.9889 29.71 52.8489 29.71H45.6189ZM48.0189 17.53H52.6689C53.5489 17.53 54.2789 17.24 54.8589 16.66C55.4589 16.06 55.7589 15.34 55.7589 14.5C55.7589 13.66 55.4589 12.95 54.8589 12.37C54.2789 11.77 53.5489 11.47 52.6689 11.47H48.0189V17.53ZM48.0189 27.55H52.7889C53.4889 27.55 54.1289 27.37 54.7089 27.01C55.3089 26.65 55.7789 26.18 56.1189 25.6C56.4789 25 56.6589 24.34 56.6589 23.62C56.6589 22.9 56.4789 22.24 56.1189 21.64C55.7789 21.04 55.3189 20.57 54.7389 20.23C54.1589 19.87 53.5089 19.69 52.7889 19.69H48.0189V27.55Z" fill="black"/>
<path d="M26.6 55.7023V28.5023H29.8V52.8223H40.88V55.7023H26.6ZM50.5306 56.2623C48.104 56.2623 46.184 55.3556 44.7706 53.5423C43.384 51.7023 42.6906 49.2089 42.6906 46.0623C42.6906 43.9289 43.104 42.0489 43.9306 40.4223C44.784 38.7689 45.9573 37.4756 47.4506 36.5423C48.944 35.6089 50.6373 35.1423 52.5306 35.1423C53.7573 35.1423 55.024 35.3556 56.3306 35.7823C57.664 36.2089 58.8373 36.7689 59.8506 37.4623V51.7023L60.2506 55.7023L57.6106 55.9023L56.8906 52.3023C56.1973 53.5556 55.304 54.5289 54.2106 55.2223C53.1173 55.9156 51.8906 56.2623 50.5306 56.2623ZM51.1306 53.5423C52.8373 53.5423 54.2106 52.7156 55.2506 51.0623C56.2906 49.3823 56.8106 47.1689 56.8106 44.4223V38.8623C55.4773 38.1956 54.0506 37.8623 52.5306 37.8623C51.224 37.8623 50.0506 38.2089 49.0106 38.9023C47.9973 39.5956 47.1973 40.5689 46.6106 41.8223C46.024 43.0489 45.7306 44.4623 45.7306 46.0623C45.7306 48.3556 46.2106 50.1823 47.1706 51.5423C48.1573 52.8756 49.4773 53.5423 51.1306 53.5423ZM73.7888 56.2623C71.4421 56.2623 69.6288 55.5423 68.3488 54.1023C67.0954 52.6356 66.4688 50.5556 66.4688 47.8623V27.7023H69.5088V38.9823C70.9488 36.4223 73.1088 35.1423 75.9888 35.1423C78.3621 35.1423 80.2288 36.0623 81.5888 37.9023C82.9488 39.7156 83.6288 42.1956 83.6288 45.3423C83.6288 47.4489 83.2021 49.3289 82.3488 50.9823C81.5221 52.6356 80.3621 53.9289 78.8688 54.8623C77.4021 55.7956 75.7088 56.2623 73.7888 56.2623ZM73.7888 53.5423C75.1221 53.5423 76.2954 53.1956 77.3088 52.5023C78.3221 51.7823 79.1221 50.8089 79.7088 49.5823C80.2954 48.3556 80.5888 46.9423 80.5888 45.3423C80.5888 42.9956 80.1488 41.1689 79.2688 39.8623C78.4154 38.5289 77.2021 37.8623 75.6288 37.8623C73.7354 37.8623 72.2554 38.6489 71.1888 40.2223C70.1221 41.7956 69.5621 44.0089 69.5088 46.8623V47.8623C69.5088 49.6489 69.8821 51.0489 70.6288 52.0623C71.3754 53.0489 72.4288 53.5423 73.7888 53.5423Z" fill="black"/>
</g>
<defs>
<clipPath id="clip0_46_24">
<rect width="89" height="57" fill="white"/>
</clipPath>
</defs>
</svg>
